<svg width="173" height="39" viewBox="0 0 173 39" fill="none" xmlns="http://www.w3.org/2000/svg">
<path d="M56.7871 0H18.929C8.47056 0 0 8.55178 0 19.1105C0 29.6692 8.47056 38.221 18.929 38.221H56.7871C67.2456 38.221 75.7161 29.6692 75.7161 19.1105C75.7161 8.55178 67.2456 0 56.7871 0ZM29.493 30.3174H23.8988V21.4815H16.7388V30.3174H11.1446V8.22316H16.7388V16.5263H23.8988V8.22316H29.493V30.3174ZM45.6425 13.1784H41.3501V30.3174H35.7559V13.1784H31.437V8.22316H45.6338V13.1784H45.6425ZM57.2885 25.7796C59.5051 25.7796 61.3962 24.5275 62.5573 22.0499H68.4154C67.0521 27.3692 62.5309 30.7437 57.3501 30.7437C54.3067 30.7437 51.4304 29.6692 49.1874 27.4313C46.8212 25.1047 45.8185 22.2985 45.8185 18.9507C45.8185 13.0985 50.8146 7.8147 57.0862 7.8147C60.1032 7.8147 62.5309 8.64948 64.7212 10.5321C66.7882 12.3259 68.0372 14.3506 68.4154 16.624H62.5573C61.6073 14.2086 59.5403 12.7699 57.2621 12.7699C53.7701 12.7699 51.4039 15.7892 51.4039 19.217C51.4039 22.7959 53.8228 25.7796 57.2885 25.7796Z" fill="black"/>
<path d="M92.6047 30.3175V21.4815H85.4447V30.3175H79.8501V8.22314H85.4447V16.5263H92.6047V8.22314H98.1985V30.3263H92.6047V30.3175Z" fill="black"/>
<path d="M105.332 23.5418C105.596 25.4245 107.171 26.6766 109.176 26.6766C110.504 26.6766 111.366 26.1704 112.167 25.1225H117.198C115.632 28.7368 112.642 30.8592 109.185 30.8592C104.452 30.8592 100.485 27.0051 100.485 22.0765C100.485 17.2989 104.268 13.1785 109.097 13.1785C114.005 13.1785 117.761 17.0947 117.761 22.2275C117.761 22.707 117.735 23.0978 117.647 23.5418H105.332ZM112.853 20.1939C112.466 18.4889 110.988 17.3611 109.097 17.3611C107.32 17.3611 105.781 18.4356 105.402 20.1939H112.853Z" fill="black"/>
<path d="M132.072 30.3175V28.5237H132.01C131.298 29.9889 129.345 30.8858 127.19 30.8858C122.335 30.8858 118.966 27.0318 118.966 22.0144C118.966 17.1124 122.485 13.1785 127.19 13.1785C129.204 13.1785 131.069 13.9866 132.01 15.5051H132.072V13.7468H136.981V30.3264H132.072V30.3175ZM132.072 22.0144C132.072 19.6877 130.208 17.8051 127.903 17.8051C125.651 17.8051 123.883 19.6877 123.883 22.0765C123.883 24.3766 125.686 26.2592 127.964 26.2592C130.26 26.2592 132.072 24.4032 132.072 22.0144Z" fill="black"/>
<path d="M139.936 30.3175V8.22314H144.844V30.3263H139.936V30.3175Z" fill="black"/>
<path d="M148.9 30.3175V17.512H146.472V13.7468H148.9V8.22314H153.808V13.7468H156.174V17.512H153.808V30.3263H148.9V30.3175Z" fill="black"/>
<path d="M168.092 30.3175V21.2151C168.092 19.066 167.265 17.8406 165.462 17.8406C163.597 17.8406 162.709 18.9417 162.709 21.002V30.3175H157.801V8.22314H162.709V15.3275C163.422 13.9865 165.013 13.1784 166.966 13.1784C170.722 13.1784 173 15.5672 173 19.9008V30.3263H168.092V30.3175Z" fill="black"/>
</svg>
